<svg width="21" height="22" viewBox="0 0 21 22" fill="none" xmlns="http://www.w3.org/2000/svg">
<path d="M7.60698 3.448C8.20498 1.698 10.623 1.645 11.332 3.289L11.392 3.449L12.199 5.809C12.3839 6.35023 12.6828 6.84551 13.0754 7.26142C13.468 7.67734 13.9453 8.00421 14.475 8.22L14.692 8.301L17.052 9.107C18.802 9.705 18.855 12.123 17.212 12.832L17.052 12.892L14.692 13.699C14.1506 13.8838 13.6551 14.1826 13.239 14.5753C12.8229 14.9679 12.4959 15.4452 12.28 15.975L12.199 16.191L11.393 18.552C10.795 20.302 8.37698 20.355 7.66898 18.712L7.60698 18.552L6.80098 16.192C6.61616 15.6506 6.31735 15.1551 5.92472 14.739C5.53209 14.3229 5.05478 13.9959 4.52498 13.78L4.30898 13.699L1.94898 12.893C0.197982 12.295 0.144982 9.877 1.78898 9.169L1.94898 9.107L4.30898 8.301C4.85022 8.11606 5.34549 7.81719 5.76141 7.42457C6.17732 7.03195 6.50419 6.55469 6.71998 6.025L6.80098 5.809L7.60698 3.448ZM17.5 1.80688e-07C17.6871 -2.35972e-07 17.8704 0.0524783 18.0291 0.151472C18.1879 0.250465 18.3157 0.392003 18.398 0.56L18.446 0.677L18.796 1.703L19.823 2.053C20.0105 2.1167 20.1748 2.23462 20.2952 2.39182C20.4156 2.54902 20.4866 2.73842 20.4993 2.93602C20.5119 3.13362 20.4656 3.33053 20.3662 3.50179C20.2668 3.67304 20.1188 3.81094 19.941 3.898L19.823 3.946L18.797 4.296L18.447 5.323C18.3832 5.51043 18.2652 5.6747 18.1079 5.79499C17.9506 5.91529 17.7612 5.98619 17.5636 5.99872C17.366 6.01125 17.1692 5.96484 16.998 5.86538C16.8268 5.76591 16.689 5.61787 16.602 5.44L16.554 5.323L16.204 4.297L15.177 3.947C14.9895 3.8833 14.8251 3.76538 14.7048 3.60819C14.5844 3.45099 14.5133 3.26158 14.5007 3.06398C14.4881 2.86638 14.5344 2.66947 14.6338 2.49821C14.7332 2.32696 14.8811 2.18906 15.059 2.102L15.177 2.054L16.203 1.704L16.553 0.677C16.6204 0.479426 16.748 0.307909 16.9178 0.186499C17.0876 0.065089 17.2912 -0.000125281 17.5 1.80688e-07Z" fill="#2F4858"/>
</svg>
