<svg width="16" height="16" viewBox="0 0 16 16" fill="none" xmlns="http://www.w3.org/2000/svg">
<path d="M11.375 2.75V1.25M4.625 2.75V1.25M1.4375 5H14.5625M1.25 6.533C1.25 4.94675 1.25 4.15325 1.577 3.54725C1.87268 3.00673 2.3315 2.57338 2.888 2.309C3.53 2 4.37 2 6.05 2H9.95C11.63 2 12.47 2 13.112 2.309C13.6768 2.5805 14.135 3.014 14.423 3.5465C14.75 4.154 14.75 4.9475 14.75 6.53375V10.2177C14.75 11.804 14.75 12.5975 14.423 13.2035C14.1273 13.744 13.6685 14.1774 13.112 14.4418C12.47 14.75 11.63 14.75 9.95 14.75H6.05C4.37 14.75 3.53 14.75 2.888 14.441C2.33161 14.1768 1.87281 13.7437 1.577 13.2035C1.25 12.596 1.25 11.8025 1.25 10.2162V6.533Z" stroke="#0174CC" stroke-linecap="round" stroke-linejoin="round"/>
</svg>
