<svg width="20" height="20" viewBox="0 0 20 20" fill="none" xmlns="http://www.w3.org/2000/svg">
<path fill-rule="evenodd" clip-rule="evenodd" d="M7.76502 0.998074C8.0464 0.683818 8.39089 0.432433 8.77601 0.260328C9.16112 0.0882232 9.5782 -0.000732422 10 -0.000732422C10.4218 -0.000732422 10.8389 0.0882232 11.224 0.260328C11.6092 0.432433 11.9536 0.683818 12.235 0.998074L12.935 1.78007C13.0351 1.89198 13.159 1.97993 13.2977 2.03741C13.4363 2.09488 13.5862 2.1204 13.736 2.11207L14.786 2.05407C15.2071 2.03095 15.6283 2.09685 16.0221 2.24747C16.416 2.3981 16.7737 2.63006 17.0719 2.92824C17.37 3.22641 17.602 3.5841 17.7526 3.97797C17.9032 4.37183 17.9691 4.79303 17.946 5.21407L17.888 6.26407C17.8799 6.41378 17.9054 6.56341 17.9629 6.70188C18.0204 6.84036 18.1083 6.96415 18.22 7.06407L19.003 7.76407C19.3174 8.04546 19.569 8.39001 19.7412 8.77522C19.9134 9.16043 20.0024 9.57763 20.0024 9.99957C20.0024 10.4215 19.9134 10.8387 19.7412 11.2239C19.569 11.6091 19.3174 11.9537 19.003 12.2351L18.22 12.9351C18.1081 13.0351 18.0202 13.1591 17.9627 13.2977C17.9052 13.4364 17.8797 13.5862 17.888 13.7361L17.946 14.7861C17.9691 15.2071 17.9032 15.6283 17.7526 16.0222C17.602 16.416 17.37 16.7737 17.0719 17.0719C16.7737 17.3701 16.416 17.602 16.0221 17.7527C15.6283 17.9033 15.2071 17.9692 14.786 17.9461L13.736 17.8881C13.5863 17.8799 13.4367 17.9055 13.2982 17.963C13.1597 18.0204 13.036 18.1083 12.936 18.2201L12.236 19.0031C11.9546 19.3175 11.6101 19.569 11.2249 19.7412C10.8397 19.9134 10.4225 20.0024 10.0005 20.0024C9.57858 20.0024 9.16138 19.9134 8.77617 19.7412C8.39096 19.569 8.04641 19.3175 7.76502 19.0031L7.06502 18.2201C6.96499 18.1082 6.84104 18.0202 6.70238 17.9627C6.56372 17.9053 6.41389 17.8797 6.26402 17.8881L5.21402 17.9461C4.79297 17.9692 4.37178 17.9033 3.97791 17.7527C3.58405 17.602 3.22636 17.3701 2.92819 17.0719C2.63001 16.7737 2.39805 16.416 2.24742 16.0222C2.0968 15.6283 2.0309 15.2071 2.05402 14.7861L2.11202 13.7361C2.12019 13.5864 2.0946 13.4367 2.03713 13.2983C1.97966 13.1598 1.89179 13.036 1.78002 12.9361L0.998022 12.2361C0.683601 11.9547 0.432075 11.6101 0.259871 11.2249C0.087666 10.8397 -0.00134277 10.4225 -0.00134277 10.0006C-0.00134277 9.57863 0.087666 9.16143 0.259871 8.77622C0.432075 8.39101 0.683601 8.04646 0.998022 7.76507L1.78002 7.06507C1.89193 6.96504 1.97988 6.84109 2.03735 6.70243C2.09483 6.56377 2.12035 6.41394 2.11202 6.26407L2.05402 5.21407C2.0309 4.79303 2.0968 4.37183 2.24742 3.97797C2.39805 3.5841 2.63001 3.22641 2.92819 2.92824C3.22636 2.63006 3.58405 2.3981 3.97791 2.24747C4.37178 2.09685 4.79297 2.03095 5.21402 2.05407L6.26402 2.11207C6.41373 2.12025 6.56335 2.09465 6.70183 2.03718C6.84031 1.97971 6.96409 1.89184 7.06402 1.78007L7.76502 0.998074ZM13.707 6.29307C13.8945 6.4806 13.9998 6.73491 13.9998 7.00007C13.9998 7.26524 13.8945 7.51955 13.707 7.70707L7.70702 13.7071C7.51842 13.8892 7.26582 13.99 7.00362 13.9877C6.74142 13.9855 6.49061 13.8803 6.3052 13.6949C6.1198 13.5095 6.01463 13.2587 6.01235 12.9965C6.01007 12.7343 6.11086 12.4817 6.29302 12.2931L12.293 6.29307C12.4805 6.1056 12.7349 6.00029 13 6.00029C13.2652 6.00029 13.5195 6.1056 13.707 6.29307ZM7.50002 6.00007C7.1022 6.00007 6.72067 6.15811 6.43936 6.43941C6.15806 6.72072 6.00002 7.10225 6.00002 7.50007V7.51007C6.00002 7.9079 6.15806 8.28943 6.43936 8.57073C6.72067 8.85204 7.1022 9.01007 7.50002 9.01007H7.51002C7.90785 9.01007 8.28938 8.85204 8.57068 8.57073C8.85199 8.28943 9.01002 7.9079 9.01002 7.51007V7.50007C9.01002 7.10225 8.85199 6.72072 8.57068 6.43941C8.28938 6.15811 7.90785 6.00007 7.51002 6.00007H7.50002ZM12.5 11.0001C12.1022 11.0001 11.7207 11.1581 11.4394 11.4394C11.1581 11.7207 11 12.1023 11 12.5001V12.5101C11 12.9079 11.1581 13.2894 11.4394 13.5707C11.7207 13.852 12.1022 14.0101 12.5 14.0101H12.51C12.9078 14.0101 13.2894 13.852 13.5707 13.5707C13.852 13.2894 14.01 12.9079 14.01 12.5101V12.5001C14.01 12.1023 13.852 11.7207 13.5707 11.4394C13.2894 11.1581 12.9078 11.0001 12.51 11.0001H12.5Z" fill="#2F4858"/>
</svg>
