<svg width="24" height="24" viewBox="0 0 24 24" fill="none" xmlns="http://www.w3.org/2000/svg">
<path d="M20.7638 16.8324C20.7637 17.4903 20.5237 18.1255 20.0888 18.6191C19.6539 19.1127 19.0539 19.4308 18.4012 19.5137C17.7486 19.5966 17.0881 19.4386 16.5436 19.0694C15.9991 18.7002 15.6079 18.1451 15.4434 17.5081H7.24882C6.17351 17.5081 5.14223 17.081 4.38187 16.3206C3.6215 15.5602 3.19434 14.529 3.19434 13.4536C3.19434 12.3783 3.6215 11.347 4.38187 10.5867C5.14223 9.82631 6.17351 9.39915 7.24882 9.39915H15.3578C15.8955 9.39915 16.4111 9.18556 16.7913 8.80538C17.1715 8.4252 17.385 7.90956 17.385 7.3719C17.385 6.83424 17.1715 6.31861 16.7913 5.93843C16.4111 5.55824 15.8955 5.34466 15.3578 5.34466H7.24882C7.0696 5.34466 6.89772 5.27347 6.771 5.14674C6.64427 5.02001 6.57308 4.84813 6.57308 4.66891C6.57308 4.48969 6.64427 4.31781 6.771 4.19109C6.89772 4.06436 7.0696 3.99316 7.24882 3.99316H15.3578C16.2539 3.99316 17.1133 4.34914 17.7469 4.98277C18.3806 5.61641 18.7365 6.47581 18.7365 7.3719C18.7365 8.268 18.3806 9.1274 17.7469 9.76103C17.1133 10.3947 16.2539 10.7506 15.3578 10.7506H7.24882C6.53195 10.7506 5.84443 11.0354 5.33752 11.5423C4.83061 12.0492 4.54583 12.7368 4.54583 13.4536C4.54583 14.1705 4.83061 14.858 5.33752 15.3649C5.84443 15.8718 6.53195 16.1566 7.24882 16.1566H15.4434C15.6079 15.5197 15.9991 14.9645 16.5436 14.5953C17.0881 14.2261 17.7486 14.0682 18.4012 14.1511C19.0539 14.234 19.6539 14.552 20.0888 15.0456C20.5237 15.5392 20.7637 16.1745 20.7638 16.8324Z" fill="#0994CF"/>
</svg>
