<svg width="17" height="16" viewBox="0 0 17 16" fill="none" xmlns="http://www.w3.org/2000/svg">
<path fill-rule="evenodd" clip-rule="evenodd" d="M15.75 13C15.9412 13.0002 16.1251 13.0734 16.2641 13.2046C16.4031 13.3359 16.4867 13.5152 16.4979 13.706C16.5091 13.8969 16.447 14.0848 16.3243 14.2314C16.2017 14.378 16.0276 14.4722 15.8378 14.4948L15.75 14.5H2.25004C2.05888 14.4998 1.87502 14.4266 1.73602 14.2954C1.59701 14.1641 1.51337 13.9848 1.50216 13.794C1.49096 13.6031 1.55305 13.4152 1.67574 13.2686C1.79843 13.122 1.97247 13.0278 2.16229 13.0052L2.25004 13H15.75ZM5.44654 0.829C5.57225 0.795351 5.70359 0.788243 5.8322 0.808129C5.96081 0.828014 6.08386 0.874456 6.19354 0.9445L6.28504 1.01125L10.923 4.8295L13.797 4.3105C14.2987 4.21991 14.8152 4.25995 15.2968 4.42677C15.7785 4.59358 16.2091 4.88157 16.5473 5.263C16.89 5.64925 17.0355 6.16075 16.866 6.66175C16.7376 7.04216 16.523 7.3877 16.2388 7.67135C15.9546 7.95499 15.6087 8.16904 15.228 8.29675L15.0728 8.344L3.76504 11.374C3.62223 11.4122 3.47178 11.4114 3.32942 11.3715C3.18705 11.3317 3.05801 11.2543 2.95579 11.1475L2.89129 11.071L0.508542 7.8865C0.438988 7.79365 0.39169 7.68607 0.370294 7.57205C0.348898 7.45803 0.353977 7.34062 0.385139 7.22887C0.4163 7.11712 0.472712 7.01403 0.550023 6.92753C0.627334 6.84104 0.723479 6.77346 0.831042 6.73L0.919542 6.70075L2.62204 6.24475C2.75419 6.20932 2.8925 6.20325 3.02725 6.22696C3.16199 6.25068 3.28992 6.30359 3.40204 6.382L3.48454 6.44575L4.08154 6.97075L5.87779 6.26875L2.97754 2.584C2.90465 2.49139 2.85437 2.38304 2.83071 2.26759C2.80705 2.15213 2.81065 2.03274 2.84124 1.91893C2.87182 1.80511 2.92854 1.69999 3.00689 1.61195C3.08524 1.5239 3.18305 1.45535 3.29254 1.41175L3.37729 1.384L5.44654 0.829ZM5.55454 2.353L4.85329 2.5405L7.67554 6.1285C7.97029 6.50275 7.84804 7.0435 7.44079 7.2625L7.35604 7.30225L4.20604 8.53225C4.09154 8.57701 3.96786 8.59324 3.84569 8.57952C3.72351 8.5658 3.60651 8.52255 3.50479 8.4535L3.43054 8.39575L2.72029 7.771L2.36704 7.86625L3.81829 9.8065L14.685 6.895C15.018 6.80575 15.2888 6.56725 15.42 6.2515C15.2669 6.08071 15.0759 5.94815 14.8623 5.86441C14.6487 5.78067 14.4185 5.74808 14.19 5.76925L14.0648 5.7865L10.8518 6.367C10.6652 6.40146 10.4725 6.36394 10.3125 6.262L10.236 6.20575L5.55604 2.353H5.55454Z" fill="#0174CC"/>
</svg>
