<svg width="18" height="18" viewBox="0 0 18 18" fill="none" xmlns="http://www.w3.org/2000/svg">
<path fill-rule="evenodd" clip-rule="evenodd" d="M15.7499 14.9999C15.9411 15.0001 16.125 15.0733 16.264 15.2045C16.403 15.3358 16.4866 15.5151 16.4978 15.7059C16.509 15.8968 16.4469 16.0847 16.3242 16.2313C16.2016 16.3779 16.0275 16.4721 15.8377 16.4946L15.7499 16.4999H2.24994C2.05878 16.4997 1.87492 16.4265 1.73592 16.2953C1.59692 16.164 1.51327 15.9847 1.50206 15.7939C1.49086 15.603 1.55295 15.4151 1.67564 15.2685C1.79834 15.1219 1.97237 15.0277 2.16219 15.0051L2.24994 14.9999H15.7499ZM6.07719 2.40365C6.06029 2.28662 6.07101 2.16725 6.10851 2.05511C6.14601 1.94297 6.20925 1.84116 6.29315 1.75784C6.37705 1.67452 6.4793 1.612 6.5917 1.57529C6.7041 1.53857 6.82353 1.52868 6.94044 1.5464L7.02294 1.5644L9.09294 2.11865C9.35244 2.1884 9.56844 2.36615 9.68769 2.60315L9.72744 2.6954L11.8349 8.32115L14.5837 9.3089C15.0634 9.4812 15.4907 9.77407 15.8245 10.1593C16.1583 10.5446 16.3873 11.0093 16.4894 11.5086C16.5929 12.0141 16.4639 12.5309 16.0664 12.8796C15.765 13.145 15.4062 13.3369 15.0182 13.4405C14.6302 13.5441 14.2235 13.5564 13.8299 13.4766L13.6724 13.4391L2.36469 10.4091C2.2204 10.3706 2.08927 10.2936 1.98532 10.1863C1.88137 10.079 1.80848 9.94558 1.77444 9.80015L1.75944 9.71015L1.28769 5.7614C1.27389 5.64582 1.28691 5.52862 1.32574 5.41888C1.36456 5.30915 1.42816 5.20984 1.51158 5.12867C1.59501 5.04749 1.69601 4.98663 1.80677 4.95082C1.91752 4.915 2.03504 4.90519 2.15019 4.92215L2.23644 4.94015L3.93894 5.3969C4.20894 5.4689 4.43019 5.6564 4.54644 5.9054L4.58469 6.00215L4.83969 6.75515L6.74619 7.0454L6.07719 2.40365ZM7.72269 3.3044L8.37369 7.8224C8.38945 7.93208 8.38095 8.04389 8.3488 8.14993C8.31664 8.25597 8.26161 8.35366 8.18759 8.43612C8.11357 8.51858 8.02236 8.5838 7.92039 8.62717C7.81843 8.67054 7.70819 8.69102 7.59744 8.68715L7.50969 8.67965L4.16769 8.16965C4.046 8.15121 3.93064 8.1034 3.83158 8.03035C3.73253 7.95729 3.65276 7.86121 3.59919 7.7504L3.56394 7.66415L3.26094 6.7679L2.90694 6.67265L3.19419 9.0794L14.0602 11.9909C14.3932 12.0801 14.7472 12.0089 15.0179 11.8011C14.9704 11.5751 14.8702 11.3635 14.7256 11.1834C14.5809 11.0033 14.3959 10.8599 14.1854 10.7646L14.0767 10.7204L11.0047 9.6164C10.8259 9.55315 10.6777 9.42452 10.5899 9.2564L10.5517 9.1694L8.42469 3.4919L7.72269 3.3044Z" fill="#0174CC"/>
</svg>
