<svg width="16" height="16" viewBox="0 0 16 16" fill="none" xmlns="http://www.w3.org/2000/svg">
<path d="M6.56337 0.185752C6.63782 0.222654 6.70316 0.275589 6.75471 0.340752C6.80625 0.405915 6.84273 0.481689 6.8615 0.562627C6.88175 0.651502 7.4375 3.02975 7.4375 4.625C7.4375 5.69375 6.94025 6.64663 6.16625 7.26425C5.885 7.48925 5.75 7.7345 5.75 7.93925V8.486C5.75 8.51225 5.7515 8.537 5.7545 8.56025C5.79275 8.83925 5.93113 9.87538 6.0605 10.9498C6.18762 12.0039 6.3125 13.1536 6.3125 13.625C6.3125 14.2217 6.07545 14.794 5.65349 15.216C5.23153 15.6379 4.65924 15.875 4.0625 15.875C3.46576 15.875 2.89347 15.6379 2.47151 15.216C2.04955 14.794 1.8125 14.2217 1.8125 13.625C1.8125 13.1525 1.93737 12.005 2.0645 10.9498C2.19387 9.87538 2.33225 8.83925 2.3705 8.56025L2.375 8.486V7.93925C2.375 7.7345 2.24 7.48925 1.95875 7.26425C1.56217 6.94812 1.24193 6.54667 1.02184 6.08974C0.801757 5.63282 0.687478 5.13217 0.6875 4.625C0.6875 3.03538 1.23875 0.669502 1.2635 0.563752C1.29275 0.438697 1.3635 0.327241 1.46422 0.247561C1.56495 0.167881 1.6897 0.124679 1.81813 0.125002C2.13313 0.125002 2.3885 0.380377 2.3885 0.695377V4.06813C2.38407 4.1441 2.39525 4.22017 2.42136 4.29165C2.44747 4.36313 2.48796 4.4285 2.54031 4.48373C2.59267 4.53895 2.6558 4.58286 2.72579 4.61274C2.79578 4.64262 2.87115 4.65783 2.94725 4.65745C3.02335 4.65706 3.09856 4.64109 3.16824 4.6105C3.23793 4.57991 3.3006 4.53537 3.3524 4.47962C3.4042 4.42387 3.44402 4.35809 3.4694 4.28635C3.49479 4.21461 3.5052 4.13842 3.5 4.0625V0.687502C3.5 0.538318 3.55926 0.395243 3.66475 0.289754C3.77024 0.184265 3.91332 0.125002 4.0625 0.125002C4.21168 0.125002 4.35476 0.184265 4.46025 0.289754C4.56574 0.395243 4.625 0.538318 4.625 0.687502V4.09175C4.62813 4.23944 4.68981 4.37984 4.79646 4.48206C4.90311 4.58428 5.04599 4.63995 5.19369 4.63681C5.34138 4.63368 5.48178 4.57201 5.584 4.46536C5.68622 4.35871 5.74188 4.21582 5.73875 4.06813V0.693127C5.73875 0.379252 5.993 0.125002 6.308 0.125002C6.33275 0.125002 6.443 0.125002 6.56337 0.185752ZM9.125 5.1875C9.125 3.84484 9.65837 2.55718 10.6078 1.60777C11.5572 0.658371 12.8448 0.125002 14.1875 0.125002C14.3367 0.125002 14.4798 0.184265 14.5852 0.289754C14.6907 0.395243 14.75 0.538318 14.75 0.687502V7.40713L14.7714 7.60625C14.8609 8.44588 14.9467 9.28589 15.029 10.1263C15.1674 11.5393 15.3125 13.1233 15.3125 13.625C15.3125 14.2217 15.0754 14.794 14.6535 15.216C14.2315 15.6379 13.6592 15.875 13.0625 15.875C12.4658 15.875 11.8935 15.6379 11.4715 15.216C11.0496 14.794 10.8125 14.2217 10.8125 13.625C10.8125 13.1233 10.9576 11.5393 11.096 10.1263C11.1669 9.40963 11.2378 8.72338 11.2906 8.21488L11.3131 8H10.25C9.95163 8 9.66548 7.88147 9.4545 7.6705C9.24353 7.45952 9.125 7.17337 9.125 6.875V5.1875Z" fill="#2F4858"/>
</svg>
