<svg width="18" height="18" viewBox="0 0 18 18" fill="none" xmlns="http://www.w3.org/2000/svg">
<path d="M7.56337 1.18575C7.63782 1.22265 7.70316 1.27559 7.75471 1.34075C7.80625 1.40592 7.84273 1.48169 7.8615 1.56263C7.88175 1.6515 8.4375 4.02975 8.4375 5.625C8.4375 6.69375 7.94025 7.64663 7.16625 8.26425C6.885 8.48925 6.75 8.7345 6.75 8.93925V9.486C6.75 9.51225 6.7515 9.537 6.7545 9.56025C6.79275 9.83925 6.93113 10.8754 7.0605 11.9498C7.18762 13.0039 7.3125 14.1536 7.3125 14.625C7.3125 15.2217 7.07545 15.794 6.65349 16.216C6.23153 16.6379 5.65924 16.875 5.0625 16.875C4.46576 16.875 3.89347 16.6379 3.47151 16.216C3.04955 15.794 2.8125 15.2217 2.8125 14.625C2.8125 14.1525 2.93737 13.005 3.0645 11.9498C3.19387 10.8754 3.33225 9.83925 3.3705 9.56025L3.375 9.486V8.93925C3.375 8.7345 3.24 8.48925 2.95875 8.26425C2.56217 7.94812 2.24193 7.54667 2.02184 7.08974C1.80176 6.63282 1.68748 6.13217 1.6875 5.625C1.6875 4.03538 2.23875 1.6695 2.2635 1.56375C2.29275 1.4387 2.3635 1.32724 2.46422 1.24756C2.56495 1.16788 2.6897 1.12468 2.81813 1.125C3.13313 1.125 3.3885 1.38038 3.3885 1.69538V5.06813C3.38407 5.1441 3.39525 5.22017 3.42136 5.29165C3.44747 5.36313 3.48796 5.4285 3.54031 5.48373C3.59267 5.53895 3.6558 5.58286 3.72579 5.61274C3.79578 5.64262 3.87115 5.65783 3.94725 5.65745C4.02335 5.65706 4.09856 5.64109 4.16824 5.6105C4.23793 5.57991 4.3006 5.53537 4.3524 5.47962C4.4042 5.42387 4.44402 5.35809 4.4694 5.28635C4.49479 5.21461 4.5052 5.13842 4.5 5.0625V1.6875C4.5 1.53832 4.55926 1.39524 4.66475 1.28975C4.77024 1.18426 4.91332 1.125 5.0625 1.125C5.21168 1.125 5.35476 1.18426 5.46025 1.28975C5.56574 1.39524 5.625 1.53832 5.625 1.6875V5.09175C5.62813 5.23944 5.68981 5.37984 5.79646 5.48206C5.90311 5.58428 6.04599 5.63995 6.19369 5.63681C6.34138 5.63368 6.48178 5.57201 6.584 5.46536C6.68622 5.35871 6.74188 5.21582 6.73875 5.06813V1.69313C6.73875 1.37925 6.993 1.125 7.308 1.125C7.33275 1.125 7.443 1.125 7.56337 1.18575ZM10.125 6.1875C10.125 4.84484 10.6584 3.55718 11.6078 2.60777C12.5572 1.65837 13.8448 1.125 15.1875 1.125C15.3367 1.125 15.4798 1.18426 15.5852 1.28975C15.6907 1.39524 15.75 1.53832 15.75 1.6875V8.40713L15.7714 8.60625C15.8609 9.44588 15.9467 10.2859 16.029 11.1263C16.1674 12.5393 16.3125 14.1233 16.3125 14.625C16.3125 15.2217 16.0754 15.794 15.6535 16.216C15.2315 16.6379 14.6592 16.875 14.0625 16.875C13.4658 16.875 12.8935 16.6379 12.4715 16.216C12.0496 15.794 11.8125 15.2217 11.8125 14.625C11.8125 14.1233 11.9576 12.5393 12.096 11.1263C12.1669 10.4096 12.2378 9.72338 12.2906 9.21488L12.3131 9H11.25C10.9516 9 10.6655 8.88147 10.4545 8.6705C10.2435 8.45952 10.125 8.17337 10.125 7.875V6.1875Z" fill="#2F4858"/>
</svg>
