<svg width="11" height="11" viewBox="0 0 11 11" fill="none" xmlns="http://www.w3.org/2000/svg">
<path d="M6.54083 2.33385C6.64044 2.43334 6.77546 2.48922 6.91625 2.48922C7.05703 2.48922 7.19205 2.43334 7.29166 2.33385L7.80166 1.82385V9.04177C7.80166 9.18266 7.85763 9.31779 7.95726 9.41742C8.05689 9.51705 8.19202 9.57302 8.33291 9.57302C8.47381 9.57302 8.60893 9.51705 8.70856 9.41742C8.80819 9.31779 8.86416 9.18266 8.86416 9.04177V1.82385L9.37416 2.33385C9.4228 2.38605 9.48145 2.42791 9.54661 2.45695C9.61178 2.48598 9.68213 2.5016 9.75346 2.50285C9.82479 2.50411 9.89564 2.49099 9.96179 2.46427C10.0279 2.43755 10.088 2.39778 10.1385 2.34734C10.1889 2.29689 10.2287 2.2368 10.2554 2.17065C10.2821 2.1045 10.2953 2.03365 10.294 1.96232C10.2927 1.89098 10.2771 1.82064 10.2481 1.75547C10.2191 1.6903 10.1772 1.63165 10.125 1.58302L8.70833 0.166352C8.60872 0.0668663 8.47369 0.0109863 8.33291 0.0109863C8.19213 0.0109863 8.05711 0.0668663 7.9575 0.166352L6.54083 1.58302C6.44134 1.68263 6.38546 1.81765 6.38546 1.95844C6.38546 2.09922 6.44134 2.23424 6.54083 2.33385ZM3.1975 9.17635L3.7075 8.66635C3.75613 8.61416 3.81478 8.57229 3.87995 8.54326C3.94511 8.51422 4.01546 8.49861 4.08679 8.49735C4.15812 8.49609 4.22898 8.50921 4.29513 8.53593C4.36128 8.56265 4.42137 8.60242 4.47181 8.65287C4.52226 8.70331 4.56203 8.7634 4.58875 8.82955C4.61547 8.8957 4.62859 8.96656 4.62733 9.03789C4.62607 9.10922 4.61046 9.17957 4.58142 9.24473C4.55239 9.3099 4.51052 9.36855 4.45833 9.41719L3.04166 10.8339C2.94205 10.9333 2.80703 10.9892 2.66625 10.9892C2.52546 10.9892 2.39044 10.9333 2.29083 10.8339L0.874163 9.41719C0.821968 9.36855 0.780104 9.3099 0.751068 9.24473C0.722032 9.17957 0.706419 9.10922 0.705161 9.03789C0.703902 8.96656 0.717024 8.8957 0.743743 8.82955C0.770462 8.7634 0.810231 8.70331 0.860677 8.65287C0.911124 8.60242 0.971215 8.56265 1.03736 8.53593C1.10351 8.50921 1.17437 8.49609 1.2457 8.49735C1.31703 8.49861 1.38738 8.51422 1.45254 8.54326C1.51771 8.57229 1.57636 8.61416 1.625 8.66635L2.135 9.17635V1.95844C2.135 1.81754 2.19097 1.68241 2.2906 1.58278C2.39022 1.48316 2.52535 1.42719 2.66625 1.42719C2.80714 1.42719 2.94227 1.48316 3.0419 1.58278C3.14153 1.68241 3.1975 1.81754 3.1975 1.95844V9.17635Z" fill="white"/>
</svg>
