<svg width="7" height="11" viewBox="0 0 7 11" fill="none" xmlns="http://www.w3.org/2000/svg">
<path d="M3.04169 2.74984H3.95835V1.83317H3.04169V2.74984ZM3.50002 5.49984C2.91946 5.49984 2.36565 5.37945 1.83856 5.13867C1.31148 4.89789 0.795854 4.6287 0.291687 4.33109V3.6665C0.291687 3.41442 0.38152 3.1987 0.561187 3.01934C0.740854 2.83998 0.956576 2.75014 1.20835 2.74984H2.12502V1.37484C2.12502 1.24498 2.16902 1.1362 2.25702 1.0485C2.34502 0.96081 2.4538 0.916809 2.58335 0.916504H4.41669C4.54655 0.916504 4.65548 0.960504 4.74348 1.0485C4.83148 1.1365 4.87533 1.24528 4.87502 1.37484V2.74984H5.79169C6.04377 2.74984 6.25964 2.83967 6.43931 3.01934C6.61898 3.199 6.70866 3.41473 6.70835 3.6665V4.33109C6.20419 4.629 5.68856 4.89835 5.16148 5.13913C4.6344 5.37991 4.08058 5.50014 3.50002 5.49984ZM1.20835 9.62484C0.95627 9.62484 0.740548 9.53516 0.561187 9.3558C0.381826 9.17643 0.291993 8.96056 0.291687 8.70817V5.36234C0.719465 5.62206 1.16069 5.84359 1.61535 6.02692C2.07002 6.21025 2.54546 6.33248 3.04169 6.39359V6.4165C3.04169 6.54637 3.08569 6.6553 3.17369 6.7433C3.26169 6.8313 3.37046 6.87514 3.50002 6.87484C3.62958 6.87453 3.73851 6.83053 3.82681 6.74284C3.91512 6.65514 3.95896 6.54637 3.95835 6.4165V6.39359C4.45488 6.33248 4.93048 6.21025 5.38515 6.02692C5.83981 5.84359 6.28088 5.62206 6.70835 5.36234V8.70817C6.70835 8.96025 6.61867 9.17613 6.43931 9.3558C6.25995 9.53546 6.04408 9.62514 5.79169 9.62484C5.79169 9.7547 5.74769 9.86363 5.65969 9.95163C5.57169 10.0396 5.46291 10.0835 5.33335 10.0832C5.21113 10.0832 5.12527 10.0277 5.07577 9.9168C5.02627 9.80588 4.95935 9.70856 4.87502 9.62484H2.12502C2.12502 9.7547 2.08102 9.86363 1.99302 9.95163C1.90502 10.0396 1.79624 10.0835 1.66669 10.0832C1.54446 10.0832 1.4586 10.0277 1.4091 9.9168C1.3596 9.80588 1.29269 9.70856 1.20835 9.62484Z" fill="white"/>
</svg>
