<svg width="25" height="24" viewBox="0 0 25 24" fill="none" xmlns="http://www.w3.org/2000/svg">
<path d="M24.0929 9.42769L22.0975 7.70188L21.0637 6.85611L13.2745 0.284285C12.8207 -0.0947617 12.1416 -0.0947617 11.6878 0.284285L3.89852 6.85611L2.86476 7.70188L0.869367 9.42769C0.405276 9.85153 0.374549 10.5477 0.79966 11.007C1.22477 11.4663 1.95492 11.5259 2.45607 11.1421L2.86476 10.7992V20.5712C2.86476 22.4649 4.47929 24 6.4709 24H8.875V17.1424C8.875 15.2488 10.4895 13.7137 12.4811 13.7137C14.4727 13.7137 16.0873 15.2488 16.0873 17.1424V24H18.4914C20.483 24 22.0975 22.4649 22.0975 20.5712V10.7992L22.5062 11.1421C23.0043 11.5581 23.7626 11.5121 24.2011 11.0392C24.6386 10.5656 24.5902 9.84459 24.0929 9.42769Z" fill="#2F4858"/>
</svg>
