<svg width="31" height="32" viewBox="0 0 31 32" fill="none" xmlns="http://www.w3.org/2000/svg">
<path fill-rule="evenodd" clip-rule="evenodd" d="M24.0417 0.916748C24.9478 0.916748 25.8169 1.27672 26.4576 1.91747C27.0984 2.55822 27.4583 3.42726 27.4583 4.33341V6.04175H29.1667C29.6197 6.04175 30.0543 6.22173 30.3746 6.54211C30.695 6.86248 30.875 7.297 30.875 7.75008C30.875 8.20316 30.695 8.63768 30.3746 8.95806C30.0543 9.27843 29.6197 9.45842 29.1667 9.45842V28.2501C29.6197 28.2501 30.0543 28.4301 30.3746 28.7504C30.695 29.0708 30.875 29.5053 30.875 29.9584C30.875 30.4115 30.695 30.846 30.3746 31.1664C30.0543 31.4868 29.6197 31.6667 29.1667 31.6667H18.0625V23.9792C18.0625 23.2996 17.7925 22.6478 17.312 22.1673C16.8314 21.6867 16.1796 21.4167 15.5 21.4167C14.8204 21.4167 14.1686 21.6867 13.688 22.1673C13.2075 22.6478 12.9375 23.2996 12.9375 23.9792V31.6667H1.83333C1.38026 31.6667 0.945734 31.4868 0.625359 31.1664C0.304985 30.846 0.125 30.4115 0.125 29.9584C0.125 29.5053 0.304985 29.0708 0.625359 28.7504C0.945734 28.4301 1.38026 28.2501 1.83333 28.2501V9.45842C1.38026 9.45842 0.945734 9.27843 0.625359 8.95806C0.304985 8.63768 0.125 8.20316 0.125 7.75008C0.125 7.297 0.304985 6.86248 0.625359 6.54211C0.945734 6.22173 1.38026 6.04175 1.83333 6.04175H3.54167V4.33341C3.54167 3.42726 3.90164 2.55822 4.54239 1.91747C5.18313 1.27672 6.05218 0.916748 6.95833 0.916748H24.0417ZM8.66667 18.0001C8.21359 18.0001 7.77907 18.1801 7.45869 18.5004C7.13832 18.8208 6.95833 19.2553 6.95833 19.7084V21.4167C6.95833 21.8698 7.13832 22.3043 7.45869 22.6247C7.77907 22.9451 8.21359 23.1251 8.66667 23.1251C9.11975 23.1251 9.55427 22.9451 9.87464 22.6247C10.195 22.3043 10.375 21.8698 10.375 21.4167V19.7084C10.375 19.2553 10.195 18.8208 9.87464 18.5004C9.55427 18.1801 9.11975 18.0001 8.66667 18.0001ZM22.3333 18.0001C21.9149 18.0001 21.511 18.1538 21.1984 18.4318C20.8857 18.7099 20.6859 19.093 20.637 19.5085L20.625 19.7084V21.4167C20.6255 21.8522 20.7922 22.271 21.0911 22.5876C21.39 22.9042 21.7985 23.0947 22.2332 23.1203C22.6679 23.1458 23.0959 23.0043 23.4298 22.7249C23.7637 22.4454 23.9783 22.049 24.0297 21.6166L24.0417 21.4167V19.7084C24.0417 19.2553 23.8617 18.8208 23.5413 18.5004C23.2209 18.1801 22.7864 18.0001 22.3333 18.0001ZM8.66667 11.1667C8.24824 11.1668 7.84438 11.3204 7.5317 11.5985C7.21901 11.8765 7.01925 12.2597 6.97029 12.6752L6.95833 12.8751V14.5834C6.95882 15.0188 7.12554 15.4376 7.42445 15.7543C7.72335 16.0709 8.13188 16.2614 8.56655 16.2869C9.00122 16.3124 9.42923 16.171 9.76313 15.8915C10.097 15.6121 10.3116 15.2157 10.363 14.7833L10.375 14.5834V12.8751C10.375 12.422 10.195 11.9875 9.87464 11.6671C9.55427 11.3467 9.11975 11.1667 8.66667 11.1667ZM15.5 11.1667C15.0816 11.1668 14.6777 11.3204 14.365 11.5985C14.0523 11.8765 13.8526 12.2597 13.8036 12.6752L13.7917 12.8751V14.5834C13.7921 15.0188 13.9589 15.4376 14.2578 15.7543C14.5567 16.0709 14.9652 16.2614 15.3999 16.2869C15.8346 16.3124 16.2626 16.171 16.5965 15.8915C16.9304 15.6121 17.1449 15.2157 17.1964 14.7833L17.2083 14.5834V12.8751C17.2083 12.422 17.0283 11.9875 16.708 11.6671C16.3876 11.3467 15.9531 11.1667 15.5 11.1667ZM22.3333 11.1667C21.8803 11.1667 21.4457 11.3467 21.1254 11.6671C20.805 11.9875 20.625 12.422 20.625 12.8751V14.5834C20.625 15.0365 20.805 15.471 21.1254 15.7914C21.4457 16.1118 21.8803 16.2917 22.3333 16.2917C22.7864 16.2917 23.2209 16.1118 23.5413 15.7914C23.8617 15.471 24.0417 15.0365 24.0417 14.5834V12.8751C24.0417 12.422 23.8617 11.9875 23.5413 11.6671C23.2209 11.3467 22.7864 11.1667 22.3333 11.1667ZM24.0417 4.33341H6.95833V6.04175H24.0417V4.33341Z" fill="#2F4858"/>
</svg>
