<svg width="18" height="18" viewBox="0 0 18 18" fill="none" xmlns="http://www.w3.org/2000/svg">
<g clip-path="url(#clip0_63_816)">
<path d="M8.94376 0.5625C5.28751 0.5625 2.16564 2.925 1.01251 6.1875H16.9313C15.75 2.925 12.6281 0.5625 8.94376 0.5625Z" fill="#F2B200"/>
<path d="M8.94376 17.4375C12.6281 17.4375 15.75 15.1031 16.9031 11.8125H1.01251C2.16564 15.1031 5.28751 17.4375 8.94376 17.4375Z" fill="#83BF4F"/>
<path d="M1.01249 6.1875C0.703113 7.05937 0.534363 8.01562 0.534363 9C0.534363 9.98438 0.703113 10.9406 1.01249 11.8125H16.9312C17.2406 10.9406 17.4094 9.98438 17.4094 9C17.4094 8.01562 17.2406 7.05937 16.9312 6.1875H1.01249Z" fill="white"/>
<path d="M8.94373 11.25C10.1864 11.25 11.1937 10.2426 11.1937 9C11.1937 7.75736 10.1864 6.75 8.94373 6.75C7.70108 6.75 6.69373 7.75736 6.69373 9C6.69373 10.2426 7.70108 11.25 8.94373 11.25Z" fill="#428BC1"/>
<path d="M8.94373 10.9688C10.031 10.9688 10.9125 10.0873 10.9125 9C10.9125 7.91269 10.031 7.03125 8.94373 7.03125C7.85641 7.03125 6.97498 7.91269 6.97498 9C6.97498 10.0873 7.85641 10.9688 8.94373 10.9688Z" fill="white"/>
<path d="M8.21246 7.3125C8.29013 7.3125 8.35309 7.24954 8.35309 7.17188C8.35309 7.09421 8.29013 7.03125 8.21246 7.03125C8.1348 7.03125 8.07184 7.09421 8.07184 7.17188C8.07184 7.24954 8.1348 7.3125 8.21246 7.3125Z" fill="#428BC1"/>
<path d="M7.76251 7.56567C7.84018 7.56567 7.90314 7.50271 7.90314 7.42505C7.90314 7.34738 7.84018 7.28442 7.76251 7.28442C7.68485 7.28442 7.62189 7.34738 7.62189 7.42505C7.62189 7.50271 7.68485 7.56567 7.76251 7.56567Z" fill="#428BC1"/>
<path d="M7.39685 7.93127C7.47452 7.93127 7.53748 7.86831 7.53748 7.79065C7.53748 7.71298 7.47452 7.65002 7.39685 7.65002C7.31919 7.65002 7.25623 7.71298 7.25623 7.79065C7.25623 7.86831 7.31919 7.93127 7.39685 7.93127Z" fill="#428BC1"/>
<path d="M7.14374 8.38123C7.2214 8.38123 7.28436 8.31827 7.28436 8.2406C7.28436 8.16294 7.2214 8.09998 7.14374 8.09998C7.06607 8.09998 7.00311 8.16294 7.00311 8.2406C7.00311 8.31827 7.06607 8.38123 7.14374 8.38123Z" fill="#428BC1"/>
<path d="M7.00311 8.88745C7.08078 8.88745 7.14374 8.82449 7.14374 8.74683C7.14374 8.66916 7.08078 8.6062 7.00311 8.6062C6.92545 8.6062 6.86249 8.66916 6.86249 8.74683C6.86249 8.82449 6.92545 8.88745 7.00311 8.88745Z" fill="#428BC1"/>
<path d="M7.00311 9.3938C7.08078 9.3938 7.14374 9.33084 7.14374 9.25317C7.14374 9.17551 7.08078 9.11255 7.00311 9.11255C6.92545 9.11255 6.86249 9.17551 6.86249 9.25317C6.86249 9.33084 6.92545 9.3938 7.00311 9.3938Z" fill="#428BC1"/>
<path d="M7.14374 9.90002C7.2214 9.90002 7.28436 9.83706 7.28436 9.7594C7.28436 9.68173 7.2214 9.61877 7.14374 9.61877C7.06607 9.61877 7.00311 9.68173 7.00311 9.7594C7.00311 9.83706 7.06607 9.90002 7.14374 9.90002Z" fill="#428BC1"/>
<path d="M7.39685 10.35C7.47452 10.35 7.53748 10.287 7.53748 10.2094C7.53748 10.1317 7.47452 10.0687 7.39685 10.0687C7.31919 10.0687 7.25623 10.1317 7.25623 10.2094C7.25623 10.287 7.31919 10.35 7.39685 10.35Z" fill="#428BC1"/>
<path d="M7.76251 10.7156C7.84018 10.7156 7.90314 10.6526 7.90314 10.575C7.90314 10.4973 7.84018 10.4343 7.76251 10.4343C7.68485 10.4343 7.62189 10.4973 7.62189 10.575C7.62189 10.6526 7.68485 10.7156 7.76251 10.7156Z" fill="#428BC1"/>
<path d="M8.21246 10.9688C8.29013 10.9688 8.35309 10.9058 8.35309 10.8281C8.35309 10.7505 8.29013 10.6875 8.21246 10.6875C8.1348 10.6875 8.07184 10.7505 8.07184 10.8281C8.07184 10.9058 8.1348 10.9688 8.21246 10.9688Z" fill="#428BC1"/>
<path d="M8.69061 11.0813C8.76828 11.0813 8.83124 11.0183 8.83124 10.9407C8.83124 10.863 8.76828 10.8 8.69061 10.8C8.61295 10.8 8.54999 10.863 8.54999 10.9407C8.54999 11.0183 8.61295 11.0813 8.69061 11.0813Z" fill="#428BC1"/>
<path d="M9.08435 10.9688C9.08435 10.8844 9.1406 10.8282 9.19685 10.8C9.28123 10.8 9.33748 10.8563 9.3656 10.9125C9.3656 10.9969 9.30935 11.0532 9.2531 11.0813C9.1406 11.1094 9.08435 11.0532 9.08435 10.9688Z" fill="#428BC1"/>
<path d="M9.70312 10.9688C9.78079 10.9688 9.84375 10.9058 9.84375 10.8281C9.84375 10.7505 9.78079 10.6875 9.70312 10.6875C9.62546 10.6875 9.5625 10.7505 9.5625 10.8281C9.5625 10.9058 9.62546 10.9688 9.70312 10.9688Z" fill="#428BC1"/>
<path d="M10.1531 10.7156C10.2308 10.7156 10.2938 10.6526 10.2938 10.575C10.2938 10.4973 10.2308 10.4343 10.1531 10.4343C10.0755 10.4343 10.0125 10.4973 10.0125 10.575C10.0125 10.6526 10.0755 10.7156 10.1531 10.7156Z" fill="#428BC1"/>
<path d="M10.5187 10.35C10.5964 10.35 10.6594 10.287 10.6594 10.2094C10.6594 10.1317 10.5964 10.0687 10.5187 10.0687C10.4411 10.0687 10.3781 10.1317 10.3781 10.2094C10.3781 10.287 10.4411 10.35 10.5187 10.35Z" fill="#428BC1"/>
<path d="M10.7719 9.90002C10.8495 9.90002 10.9125 9.83706 10.9125 9.7594C10.9125 9.68173 10.8495 9.61877 10.7719 9.61877C10.6942 9.61877 10.6312 9.68173 10.6312 9.7594C10.6312 9.83706 10.6942 9.90002 10.7719 9.90002Z" fill="#428BC1"/>
<path d="M10.9125 9.3938C10.9901 9.3938 11.0531 9.33084 11.0531 9.25317C11.0531 9.17551 10.9901 9.11255 10.9125 9.11255C10.8348 9.11255 10.7719 9.17551 10.7719 9.25317C10.7719 9.33084 10.8348 9.3938 10.9125 9.3938Z" fill="#428BC1"/>
<path d="M10.9125 8.88745C10.8281 8.88745 10.7718 8.8312 10.7437 8.77495C10.7437 8.69058 10.8 8.63433 10.8562 8.6062C10.9406 8.6062 10.9968 8.66245 11.025 8.7187C11.0531 8.80308 10.9968 8.85933 10.9125 8.88745Z" fill="#428BC1"/>
<path d="M10.7719 8.38123C10.8495 8.38123 10.9125 8.31827 10.9125 8.2406C10.9125 8.16294 10.8495 8.09998 10.7719 8.09998C10.6942 8.09998 10.6312 8.16294 10.6312 8.2406C10.6312 8.31827 10.6942 8.38123 10.7719 8.38123Z" fill="#428BC1"/>
<path d="M10.5187 7.93127C10.5964 7.93127 10.6594 7.86831 10.6594 7.79065C10.6594 7.71298 10.5964 7.65002 10.5187 7.65002C10.4411 7.65002 10.3781 7.71298 10.3781 7.79065C10.3781 7.86831 10.4411 7.93127 10.5187 7.93127Z" fill="#428BC1"/>
<path d="M10.1531 7.56567C10.2308 7.56567 10.2938 7.50271 10.2938 7.42505C10.2938 7.34738 10.2308 7.28442 10.1531 7.28442C10.0755 7.28442 10.0125 7.34738 10.0125 7.42505C10.0125 7.50271 10.0755 7.56567 10.1531 7.56567Z" fill="#428BC1"/>
<path d="M9.84374 7.22812C9.81561 7.31249 9.73124 7.34062 9.64686 7.31249C9.56249 7.28437 9.53436 7.19999 9.56249 7.11562C9.59061 7.03124 9.67499 7.00312 9.75936 7.03124C9.84374 7.08749 9.87186 7.17187 9.84374 7.22812ZM9.33749 7.05937C9.33749 7.14374 9.25311 7.19999 9.16874 7.17187C9.08436 7.17187 9.02811 7.08749 9.05624 7.00312C9.05624 6.91874 9.14061 6.86249 9.22499 6.89062C9.30936 6.91874 9.36561 7.00312 9.33749 7.05937ZM8.83124 7.03124C8.83124 7.11562 8.77499 7.17187 8.71874 7.19999C8.63436 7.19999 8.57811 7.14374 8.54999 7.08749C8.54999 7.00312 8.60624 6.94687 8.66249 6.91874C8.74686 6.89062 8.83124 6.94687 8.83124 7.03124Z" fill="#428BC1"/>
<path d="M8.94373 9.42188C9.17672 9.42188 9.3656 9.233 9.3656 9C9.3656 8.767 9.17672 8.57812 8.94373 8.57812C8.71073 8.57812 8.52185 8.767 8.52185 9C8.52185 9.233 8.71073 9.42188 8.94373 9.42188Z" fill="#428BC1"/>
<path d="M8.94375 7.03125L8.8875 8.24062L8.94375 9L9.02812 8.24062L8.94375 7.03125ZM8.4375 7.0875L8.69062 8.29688L8.94375 9L8.83125 8.24062L8.4375 7.0875Z" fill="#428BC1"/>
<path d="M7.95936 7.28442L8.52186 8.3813L8.94374 9.00005L8.63436 8.29692L7.95936 7.28442ZM7.56561 7.5938L8.38124 8.52192L8.94374 9.00005L8.46561 8.40942L7.56561 7.5938Z" fill="#428BC1"/>
<path d="M7.25623 8.01562L8.26873 8.69062L8.94373 9L8.32498 8.55L7.25623 8.01562Z" fill="#428BC1"/>
<path d="M7.05935 8.49377L8.21248 8.8594L8.94373 9.00002L8.2406 8.7469L7.05935 8.49377ZM6.97498 9.00002L8.21248 9.05627L8.94373 9.00002L8.21248 8.94377L6.97498 9.00002Z" fill="#428BC1"/>
<path d="M7.05939 9.50625L8.24064 9.25313L8.94376 9L8.21251 9.14062L7.05939 9.50625ZM7.25626 9.98438L8.32501 9.45L8.94376 9L8.26876 9.30937L7.25626 9.98438Z" fill="#428BC1"/>
<path d="M7.56561 10.3781L8.46561 9.59062L8.94374 9L8.38124 9.47813L7.56561 10.3781ZM7.95936 10.7156L8.63436 9.675L8.94374 9L8.52186 9.61875L7.95936 10.7156Z" fill="#428BC1"/>
<path d="M8.4375 10.9125L8.83125 9.75938L8.94375 9L8.69062 9.70312L8.4375 10.9125ZM8.94375 10.9688L9.02812 9.75938L8.94375 9L8.8875 9.75938L8.94375 10.9688ZM9.45 10.9125L9.225 9.70312L8.94375 9L9.08437 9.75938L9.45 10.9125Z" fill="#428BC1"/>
<path d="M9.9281 10.7156L9.39373 9.61875L8.94373 9L9.28123 9.70312L9.9281 10.7156ZM10.35 10.3781L9.53435 9.47813L8.94373 9L9.44998 9.59062L10.35 10.3781Z" fill="#428BC1"/>
<path d="M10.6594 9.9844L9.64685 9.3094L8.94373 9.00002L9.56248 9.45002L10.6594 9.9844ZM10.8562 9.50627L9.7031 9.14065L8.94373 9.00002L9.67498 9.25315L10.8562 9.50627ZM10.9125 9.00002L9.7031 8.91565L8.94373 9.00002L9.7031 9.05627L10.9125 9.00002ZM10.8562 8.49377L9.67498 8.7469L8.94373 9.00002L9.7031 8.8594L10.8562 8.49377Z" fill="#428BC1"/>
<path d="M10.6594 8.01558L9.56248 8.54995L8.94373 8.99995L9.64685 8.69058L10.6594 8.01558ZM10.35 7.62183L9.44998 8.40933L8.94373 8.99995L9.53435 8.52183L10.35 7.62183Z" fill="#428BC1"/>
<path d="M9.9281 7.28442L9.28123 8.32505L8.94373 9.00005L9.39373 8.3813L9.9281 7.28442Z" fill="#428BC1"/>
<path d="M9.4781 7.08752L9.08435 8.24065L8.94373 9.00002L9.22498 8.2969L9.4781 7.08752Z" fill="#428BC1"/>
</g>
<defs>
<clipPath id="clip0_63_816">
<rect width="18" height="18" fill="white"/>
</clipPath>
</defs>
</svg>
