<svg width="11" height="12" viewBox="0 0 11 12" fill="none" xmlns="http://www.w3.org/2000/svg">
<path fill-rule="evenodd" clip-rule="evenodd" d="M7.98756 7.6381L7.90234 7.73542L7.83505 7.84589C7.81533 7.87827 7.79078 7.91004 7.76036 7.94046L5.55473 10.1461C5.35946 10.3414 5.04288 10.3414 4.84762 10.1461L2.64199 7.94047C2.61145 7.90993 2.58684 7.87805 2.56708 7.84555L2.4997 7.73471L2.41428 7.63709C1.84398 6.98528 1.5 6.13534 1.5 5.20136C1.5 3.15716 3.15716 1.5 5.20136 1.5C7.24556 1.5 8.90272 3.15716 8.90272 5.20136C8.90272 6.13581 8.55839 6.98615 7.98756 7.6381ZM0 5.20136C0 6.51234 0.485012 7.71004 1.28539 8.62482C1.36686 8.75881 1.4655 8.88531 1.58133 9.00113L3.78696 11.2068C4.56801 11.9878 5.83434 11.9878 6.61539 11.2068L8.82102 9.00113C8.93643 8.88571 9.03479 8.7597 9.1161 8.62622C9.91721 7.71127 10.4027 6.51301 10.4027 5.20136C10.4027 2.32873 8.07399 0 5.20136 0C2.32873 0 0 2.32873 0 5.20136ZM5.24997 6.74994C6.07838 6.74994 6.74994 6.07838 6.74994 5.24997C6.74994 4.42156 6.07838 3.75 5.24997 3.75C4.42156 3.75 3.75 4.42156 3.75 5.24997C3.75 6.07838 4.42156 6.74994 5.24997 6.74994Z" fill="#5979A7"/>
</svg>
