<svg width="12" height="18" viewBox="0 0 12 18" fill="none" xmlns="http://www.w3.org/2000/svg">
<g clip-path="url(#clip0_12_5609)">
<path fill-rule="evenodd" clip-rule="evenodd" d="M4.12454 0.737933C4.21005 0.511827 4.37736 0.326085 4.59334 0.217502C4.80931 0.108918 5.05819 0.0854149 5.29068 0.151647L9.92054 1.47079C10.1533 1.53717 10.3526 1.68865 10.4788 1.89516C10.605 2.10166 10.649 2.34809 10.602 2.5855L9.25711 9.40493C9.0754 10.3254 8.57279 11.1514 7.83885 11.7358C7.1049 12.3203 6.18729 12.6251 5.24954 12.5961L4.38554 15.6265L5.33697 15.8978C5.58299 15.9679 5.7911 16.1328 5.91552 16.3563C6.03994 16.5798 6.07047 16.8436 6.00039 17.0896C5.93032 17.3357 5.76538 17.5438 5.54187 17.6682C5.31835 17.7926 5.05456 17.8231 4.80854 17.7531L2.97382 17.2285L2.88382 17.2028L1.04654 16.6795C0.800511 16.6093 0.592466 16.4442 0.46817 16.2205C0.343873 15.9969 0.313507 15.733 0.383752 15.487C0.453996 15.241 0.619097 15.0329 0.842734 14.9086C1.06637 14.7843 1.33023 14.754 1.57625 14.8242L2.53025 15.0968L3.39425 12.0664C2.58222 11.5966 1.96332 10.8539 1.6478 9.97044C1.33229 9.08699 1.34065 8.12022 1.67139 7.24236L4.12454 0.737933ZM4.74297 4.56165L8.05239 5.5465L8.53839 3.08179L5.61597 2.24865L4.74297 4.56165ZM12.8597 12.6886C11.8307 12.6889 10.8421 12.2886 10.1031 11.5726C10.4567 11.0031 10.7037 10.374 10.8321 9.71608L11.7295 5.16593L13.6311 4.71208L12.8198 2.33479L12.2258 2.48393C12.2481 1.81316 12.0072 1.16025 11.5547 0.664647L13.2107 0.249361C13.4454 0.190234 13.6938 0.221539 13.9065 0.337059C14.1192 0.452579 14.2806 0.643865 14.3588 0.872933L16.6037 7.45193C16.9063 8.33954 16.8842 9.30576 16.5411 10.1786C16.1981 11.0514 15.5564 11.7741 14.7304 12.2181L15.4967 15.2742L16.4545 15.0338C16.7026 14.9716 16.9652 15.0104 17.1847 15.1418C17.4041 15.2732 17.5623 15.4864 17.6245 15.7345C17.6868 15.9826 17.6479 16.2452 17.5165 16.4646C17.3851 16.684 17.1719 16.8423 16.9238 16.9045L15.0685 17.3699L14.9927 17.3892L13.1297 17.8572C12.8816 17.9194 12.619 17.8806 12.3996 17.7492C12.1801 17.6178 12.0219 17.4046 11.9597 17.1565C11.8974 16.9084 11.9363 16.6458 12.0677 16.4264C12.1991 16.207 12.4123 16.0487 12.6604 15.9865L13.626 15.7435L12.8597 12.6886Z" fill="#2F4858"/>
</g>
<defs>
<clipPath id="clip0_12_5609">
<rect width="18" height="18" fill="white"/>
</clipPath>
</defs>
</svg>
