<svg width="21" height="18" viewBox="0 0 21 18" fill="none" xmlns="http://www.w3.org/2000/svg">
<path fill-rule="evenodd" clip-rule="evenodd" d="M16.5 1V4H19.5C19.7652 4 20.0196 4.10536 20.2071 4.29289C20.3946 4.48043 20.5 4.73478 20.5 5V15C20.5 15.7956 20.1839 16.5587 19.6213 17.1213C19.0587 17.6839 18.2956 18 17.5 18H3.5C2.70435 18 1.94129 17.6839 1.37868 17.1213C0.816071 16.5587 0.5 15.7956 0.5 15V1C0.5 0.734784 0.605357 0.48043 0.792893 0.292893C0.98043 0.105357 1.23478 0 1.5 0H15.5C15.7652 0 16.0196 0.105357 16.2071 0.292893C16.3946 0.48043 16.5 0.734784 16.5 1ZM18.5 15C18.5 15.2652 18.3946 15.5196 18.2071 15.7071C18.0196 15.8946 17.7652 16 17.5 16C17.2348 16 16.9804 15.8946 16.7929 15.7071C16.6054 15.5196 16.5 15.2652 16.5 15V6H18.5V15ZM4.5 5C4.5 4.73478 4.60536 4.48043 4.79289 4.29289C4.98043 4.10536 5.23478 4 5.5 4H11.5C11.7652 4 12.0196 4.10536 12.2071 4.29289C12.3946 4.48043 12.5 4.73478 12.5 5C12.5 5.26522 12.3946 5.51957 12.2071 5.70711C12.0196 5.89464 11.7652 6 11.5 6H5.5C5.23478 6 4.98043 5.89464 4.79289 5.70711C4.60536 5.51957 4.5 5.26522 4.5 5ZM6.5 9C6.5 8.73478 6.60536 8.48043 6.79289 8.29289C6.98043 8.10536 7.23478 8 7.5 8H11.5C11.7652 8 12.0196 8.10536 12.2071 8.29289C12.3946 8.48043 12.5 8.73478 12.5 9C12.5 9.26522 12.3946 9.51957 12.2071 9.70711C12.0196 9.89464 11.7652 10 11.5 10H7.5C7.23478 10 6.98043 9.89464 6.79289 9.70711C6.60536 9.51957 6.5 9.26522 6.5 9Z" fill="#2F4858"/>
</svg>
