<svg width="43" height="39" viewBox="0 0 43 39" fill="none" xmlns="http://www.w3.org/2000/svg">
<path d="M5.375 1.4895C5.375 1.14969 5.51657 0.823802 5.76858 0.583521C6.02058 0.34324 6.36237 0.208252 6.71875 0.208252H14.7812C15.1376 0.208252 15.4794 0.34324 15.7314 0.583521C15.9834 0.823802 16.125 1.14969 16.125 1.4895V10.4583H17.4688C18.5379 10.4583 19.5633 10.8632 20.3193 11.5841C21.0753 12.3049 21.5 13.2826 21.5 14.302V15.5833H18.8125V14.302C18.8125 13.9622 18.6709 13.6363 18.4189 13.396C18.1669 13.1557 17.8251 13.0208 17.4688 13.0208H4.03125C3.67487 13.0208 3.33308 13.1557 3.08108 13.396C2.82907 13.6363 2.6875 13.9622 2.6875 14.302V32.2395C2.6875 32.5793 2.82907 32.9052 3.08108 33.1455C3.33308 33.3858 3.67487 33.5208 4.03125 33.5208H10.75V36.0833H6.71875V36.7239C6.71875 37.2336 6.50639 37.7224 6.12839 38.0828C5.75038 38.4433 5.2377 38.6458 4.70313 38.6458C4.16855 38.6458 3.65587 38.4433 3.27786 38.0828C2.89986 37.7224 2.6875 37.2336 2.6875 36.7239V35.8654C1.9012 35.6004 1.22047 35.1093 0.739138 34.4599C0.257806 33.8105 -0.000436665 33.0347 5.54261e-07 32.2395V14.302C5.54261e-07 13.2826 0.42472 12.3049 1.18073 11.5841C1.93673 10.8632 2.9621 10.4583 4.03125 10.4583H5.375V1.4895ZM8.0625 10.4583H13.4375V2.77075H8.0625V10.4583Z" fill="#2F4858"/>
<path d="M6.71875 15.5833C7.07513 15.5833 7.41692 15.7182 7.66892 15.9585C7.92093 16.1988 8.0625 16.5247 8.0625 16.8645V29.677C8.0625 30.0168 7.92093 30.3427 7.66892 30.583C7.41692 30.8233 7.07513 30.9583 6.71875 30.9583C6.36237 30.9583 6.02058 30.8233 5.76858 30.583C5.51657 30.3427 5.375 30.0168 5.375 29.677V16.8645C5.375 16.5247 5.51657 16.1988 5.76858 15.9585C6.02058 15.7182 6.36237 15.5833 6.71875 15.5833ZM33.5938 18.1458V16.8645C33.5938 15.8451 33.169 14.8674 32.413 14.1466C31.657 13.4257 30.6317 13.0208 29.5625 13.0208H26.875C25.8058 13.0208 24.7805 13.4257 24.0245 14.1466C23.2685 14.8674 22.8438 15.8451 22.8438 16.8645V18.1458H21.5V38.6458H34.9375V18.1458H33.5938ZM26.875 15.5833H29.5625C29.9189 15.5833 30.2607 15.7182 30.5127 15.9585C30.7647 16.1988 30.9062 16.5247 30.9062 16.8645V18.1458H25.5312V16.8645C25.5312 16.5247 25.6728 16.1988 25.9248 15.9585C26.1768 15.7182 26.5186 15.5833 26.875 15.5833ZM13.4375 21.9895C13.4375 20.9701 13.8622 19.9924 14.6182 19.2716C15.3742 18.5507 16.3996 18.1458 17.4688 18.1458H18.8125V38.6458H17.4688C16.3996 38.6458 15.3742 38.2408 14.6182 37.5199C13.8622 36.7991 13.4375 35.8214 13.4375 34.802V21.9895ZM37.625 38.6458V18.1458H38.9688C40.0379 18.1458 41.0633 18.5507 41.8193 19.2716C42.5753 19.9924 43 20.9701 43 21.9895V34.802C43 35.8214 42.5753 36.7991 41.8193 37.5199C41.0633 38.2408 40.0379 38.6458 38.9688 38.6458H37.625Z" fill="#2F4858"/>
</svg>
