<svg width="12" height="14" viewBox="0 0 12 14" fill="none" xmlns="http://www.w3.org/2000/svg">
<path d="M0.75 13V12.25C0.75 10.8576 1.30312 9.52226 2.28769 8.53769C3.27226 7.55312 4.60761 7 6 7M6 7C7.39239 7 8.72774 7.55312 9.71231 8.53769C10.6969 9.52226 11.25 10.8576 11.25 12.25V13M6 7C6.79565 7 7.55871 6.68393 8.12132 6.12132C8.68393 5.55871 9 4.79565 9 4C9 3.20435 8.68393 2.44129 8.12132 1.87868C7.55871 1.31607 6.79565 1 6 1C5.20435 1 4.44129 1.31607 3.87868 1.87868C3.31607 2.44129 3 3.20435 3 4C3 4.79565 3.31607 5.55871 3.87868 6.12132C4.44129 6.68393 5.20435 7 6 7Z" stroke="#0174CC" stroke-linecap="round" stroke-linejoin="round"/>
</svg>
