<svg width="9" height="14" viewBox="0 0 9 14" fill="none" xmlns="http://www.w3.org/2000/svg">
<path d="M4.375 0.0078125C1.95825 0.0078125 0 1.95819 0 4.37406C0 8.55131 4.375 13.9991 4.375 13.9991C4.375 13.9991 8.75 8.55044 8.75 4.37406C8.75 1.95906 6.79175 0.0078125 4.375 0.0078125ZM4.375 6.78994C3.74843 6.78994 3.14751 6.54103 2.70446 6.09798C2.26141 5.65492 2.0125 5.05401 2.0125 4.42744C2.0125 3.80086 2.26141 3.19995 2.70446 2.7569C3.14751 2.31384 3.74843 2.06494 4.375 2.06494C5.00157 2.06494 5.60249 2.31384 6.04554 2.7569C6.48859 3.19995 6.7375 3.80086 6.7375 4.42744C6.7375 5.05401 6.48859 5.65492 6.04554 6.09798C5.60249 6.54103 5.00157 6.78994 4.375 6.78994Z" fill="#FF9680"/>
</svg>
