<svg width="24" height="24" viewBox="0 0 24 24" fill="none" xmlns="http://www.w3.org/2000/svg">
<path d="M19.4956 9.62843L14.4456 8.8983L12.1881 4.34537C12.1264 4.22072 12.025 4.11981 11.8997 4.05847C11.5854 3.90413 11.2035 4.03274 11.0464 4.34537L8.7889 8.8983L3.73889 9.62843C3.59966 9.64821 3.47236 9.71351 3.3749 9.81244C3.25708 9.93292 3.19215 10.095 3.19439 10.2631C3.19663 10.4311 3.26585 10.5915 3.38684 10.7088L7.04059 14.2526L6.17738 19.2566C6.15713 19.373 6.17008 19.4928 6.21475 19.6022C6.25942 19.7117 6.33403 19.8065 6.43011 19.8759C6.52619 19.9453 6.63991 19.9866 6.75836 19.995C6.8768 20.0034 6.99525 19.9786 7.10026 19.9234L11.6172 17.5609L16.1342 19.9234C16.2575 19.9887 16.4007 20.0105 16.538 19.9868C16.884 19.9274 17.1168 19.6009 17.0571 19.2566L16.1939 14.2526L19.8476 10.7088C19.9471 10.6118 20.0127 10.4852 20.0326 10.3467C20.0863 10.0004 19.8436 9.67987 19.4956 9.62843Z" fill="#FF5733"/>
</svg>
