<svg width="19" height="24" viewBox="0 0 19 24" fill="none" xmlns="http://www.w3.org/2000/svg">
<path d="M6.5 0C4.8 0 3.5 1.3 3.5 3C3.5 4.7 4.8 6 6.5 6C7.8 6 8.9 5.2 9.3 4H11.5V6H13.5V4H15.5V2H9.3C8.9 0.8 7.8 0 6.5 0ZM6.5 2C7.1 2 7.5 2.4 7.5 3C7.5 3.6 7.1 4 6.5 4C5.9 4 5.5 3.6 5.5 3C5.5 2.4 5.9 2 6.5 2ZM4 8C3.3 8 2.8 8.4 2.6 9L0.5 15V23C0.5 23.6 0.9 24 1.5 24H2.5C3.1 24 3.5 23.6 3.5 23V22H15.5V23C15.5 23.6 15.9 24 16.5 24H17.5C18.1 24 18.5 23.6 18.5 23V15L16.4 9C16.2 8.4 15.6 8 15 8H4ZM4 9.5H15L16.5 14H2.5L4 9.5ZM4 16C4.8 16 5.5 16.7 5.5 17.5C5.5 18.3 4.8 19 4 19C3.2 19 2.5 18.3 2.5 17.5C2.5 16.7 3.2 16 4 16ZM15 16C15.8 16 16.5 16.7 16.5 17.5C16.5 18.3 15.8 19 15 19C14.2 19 13.5 18.3 13.5 17.5C13.5 16.7 14.2 16 15 16Z" fill="#2F4858"/>
</svg>
