<svg width="24" height="24" viewBox="0 0 24 24" fill="none" xmlns="http://www.w3.org/2000/svg">
<path d="M15.9723 17.5695H17.5696V11.1806H12.7779V17.5695H14.3751V12.7779H15.9723V17.5695ZM4.79178 17.5695V5.59036C4.79178 5.37855 4.87591 5.17542 5.02568 5.02566C5.17545 4.87589 5.37858 4.79175 5.59039 4.79175H16.7709C16.9827 4.79175 17.1859 4.87589 17.3356 5.02566C17.4854 5.17542 17.5696 5.37855 17.5696 5.59036V9.58341H19.1668V17.5695H19.9654V19.1667H3.99316V17.5695H4.79178ZM7.98622 11.1806V12.7779H9.58344V11.1806H7.98622ZM7.98622 14.3751V15.9723H9.58344V14.3751H7.98622ZM7.98622 7.98619V9.58341H9.58344V7.98619H7.98622Z" fill="#44AD9A"/>
</svg>
