<svg width="15" height="14" viewBox="0 0 15 14" fill="none" xmlns="http://www.w3.org/2000/svg">
<path d="M15 13.75H0V12.25H0.75V1C0.75 0.801088 0.829018 0.610322 0.96967 0.46967C1.11032 0.329018 1.30109 0.25 1.5 0.25H12C12.1989 0.25 12.3897 0.329018 12.5303 0.46967C12.671 0.610322 12.75 0.801088 12.75 1V4.75H14.25V12.25H15V13.75ZM11.25 12.25H12.75V6.25H8.25V12.25H9.75V7.75H11.25V12.25ZM11.25 4.75V1.75H2.25V12.25H6.75V4.75H11.25ZM3.75 6.25H5.25V7.75H3.75V6.25ZM3.75 9.25H5.25V10.75H3.75V9.25ZM3.75 3.25H5.25V4.75H3.75V3.25Z" fill="#0174CC"/>
</svg>
