<svg width="14" height="15" viewBox="0 0 14 15" fill="none" xmlns="http://www.w3.org/2000/svg">
<path d="M12.8361 12.3491L10.6719 10.2024C11.512 9.15499 11.9188 7.82551 11.8087 6.48734C11.6987 5.14918 11.0801 3.90404 10.0802 3.00796C9.08024 2.11188 7.775 1.63296 6.43281 1.66969C5.09063 1.70642 3.81353 2.25599 2.86411 3.20542C1.91469 4.15484 1.36511 5.43194 1.32838 6.77412C1.29166 8.1163 1.77057 9.42155 2.66665 10.4215C3.56273 11.4214 4.80787 12.04 6.14603 12.1501C7.4842 12.2601 8.81368 11.8533 9.86111 11.0132L12.0078 13.1599C12.062 13.2146 12.1265 13.258 12.1976 13.2876C12.2687 13.3172 12.3449 13.3325 12.4219 13.3325C12.4989 13.3325 12.5752 13.3172 12.6463 13.2876C12.7174 13.258 12.7819 13.2146 12.8361 13.1599C12.9412 13.0511 13 12.9058 13 12.7545C13 12.6032 12.9412 12.4579 12.8361 12.3491ZM6.58861 11.0132C5.781 11.0132 4.99153 10.7738 4.32003 10.3251C3.64853 9.8764 3.12516 9.23867 2.8161 8.49254C2.50704 7.74641 2.42618 6.92539 2.58373 6.1333C2.74129 5.34121 3.13019 4.61363 3.70126 4.04256C4.27232 3.4715 4.9999 3.0826 5.79199 2.92504C6.58408 2.76749 7.4051 2.84835 8.15123 3.15741C8.89736 3.46647 9.53509 3.98984 9.98378 4.66134C10.4325 5.33284 10.6719 6.12231 10.6719 6.92992C10.6719 8.01288 10.2417 9.05149 9.47596 9.81727C8.71019 10.583 7.67158 11.0132 6.58861 11.0132Z" fill="#6C757D"/>
</svg>
