<svg width="16" height="16" viewBox="0 0 16 16" fill="none" xmlns="http://www.w3.org/2000/svg">
<path d="M6.20675 4.25H9.79325C10.3122 4.2502 10.8097 4.45642 11.1767 4.82334C11.5436 5.19026 11.7498 5.68785 11.75 6.20675C11.7501 6.24529 11.7426 6.28347 11.7279 6.31909C11.7132 6.35471 11.6916 6.38708 11.6643 6.41433C11.6371 6.44158 11.6047 6.46318 11.5691 6.47788C11.5335 6.49258 11.4953 6.5001 11.4568 6.5H4.5425C4.50403 6.5 4.46593 6.49241 4.43039 6.47766C4.39486 6.46292 4.36258 6.4413 4.33541 6.41406C4.30824 6.38682 4.28671 6.35449 4.27205 6.31892C4.2574 6.28334 4.2499 6.24522 4.25 6.20675C4.2502 5.68785 4.45642 5.19026 4.82334 4.82334C5.19026 4.45642 5.68785 4.2502 6.20675 4.25Z" stroke="#0174CC" stroke-linecap="round" stroke-linejoin="round"/>
<path d="M11 10.2575L11.0075 10.2492M5 10.2575L5.0075 10.2492M5.75 1.25H10.25C11.4435 1.25 12.5881 1.72411 13.432 2.56802C14.2759 3.41193 14.75 4.55653 14.75 5.75V8.75C14.75 9.94347 14.2759 11.0881 13.432 11.932C12.5881 12.7759 11.4435 13.25 10.25 13.25H5.75C4.55653 13.25 3.41193 12.7759 2.56802 11.932C1.72411 11.0881 1.25 9.94347 1.25 8.75V5.75C1.25 4.55653 1.72411 3.41193 2.56802 2.56802C3.41193 1.72411 4.55653 1.25 5.75 1.25Z" stroke="#0174CC" stroke-linecap="round" stroke-linejoin="round"/>
<path d="M6.875 13.25L5.375 15.125M9.125 13.25L10.625 15.125M11.375 13.25L12.875 15.125M4.625 13.25L3.125 15.125" stroke="#0174CC" stroke-linecap="round"/>
</svg>
