<svg width="174" height="44" viewBox="0 0 174 44" fill="none" xmlns="http://www.w3.org/2000/svg">
<path d="M3.80469 8.17188L0.78125 7.79688V0.929688H27.6641V7.79688L24.6406 8.17188C24.2188 7.875 23.8203 7.20312 23.4453 6.15625H17.6797V28.4219C18.9297 28.9219 19.8125 29.4531 20.3281 30.0156L19.8359 34H8.60938L8.11719 30.0156C8.53906 29.4688 9.42188 28.9375 10.7656 28.4219V6.15625H5C4.625 7.20312 4.22656 7.875 3.80469 8.17188ZM43.6953 15.9062C41.2891 15.9062 39.6094 16.3672 38.6562 17.2891V28.2812C41.2812 28.7812 43.0625 29.4531 44 30.2969L43.5078 34H29.7734L29.3047 30.2969C29.7422 29.6875 30.625 29.1484 31.9531 28.6797V15.3203C30.8125 14.9453 29.9297 14.4062 29.3047 13.7031L29.7734 10C31.4922 9.60938 33.0781 9.41406 34.5312 9.41406C35.2344 9.41406 35.875 9.42969 36.4531 9.46094C37.0469 9.47656 37.5781 9.5 38.0469 9.53125V12.5547C38.7812 11.6797 39.7266 10.9609 40.8828 10.3984C41.8516 9.94531 42.8203 9.67969 43.7891 9.60156C44.7578 9.52344 45.4844 9.59375 45.9688 9.8125L45.8281 16.0469C45.2031 15.9531 44.4922 15.9062 43.6953 15.9062ZM48.0078 13.7031L48.4766 10C50.2891 9.57812 51.9609 9.36719 53.4922 9.36719C54.2578 9.36719 54.9609 9.38281 55.6016 9.41406C56.2422 9.42969 56.8281 9.46875 57.3594 9.53125V28.6797C58.6094 29.1484 59.4922 29.6875 60.0078 30.2969L59.5391 34H48.4766L48.0078 30.2969C48.4453 29.6875 49.3281 29.1484 50.6562 28.6797V15.3203C49.5156 14.9453 48.6328 14.4062 48.0078 13.7031ZM61.3906 13.7031L61.8594 10C63.5781 9.60938 65.1641 9.41406 66.6172 9.41406C67.3203 9.41406 67.9609 9.42969 68.5391 9.46094C69.1328 9.47656 69.6641 9.5 70.1328 9.53125V11.875C72.2734 10.375 74.5625 9.625 77 9.625C80.1875 9.625 82.5 10.5391 83.9375 12.3672C85.3906 14.1797 86.1172 17.2109 86.1172 21.4609C86.1172 23.7422 85.7812 25.75 85.1094 27.4844C84.4375 29.2031 83.5234 30.5469 82.3672 31.5156C80.1484 33.4219 77.5234 34.375 74.4922 34.375C73.1484 34.375 71.8984 34.25 70.7422 34V38.125C72.6484 38.6406 73.8672 39.2344 74.3984 39.9062L73.9297 43.6094H61.8594L61.3906 39.9062C61.7969 39.3281 62.6797 38.7812 64.0391 38.2656V15.3203C62.8984 14.9453 62.0156 14.4062 61.3906 13.7031ZM74.0234 29.4766C75.6172 29.4766 76.875 28.7656 77.7969 27.3438C78.7344 25.9062 79.2031 23.9375 79.2031 21.4375C79.2031 18.9219 78.9453 17.2031 78.4297 16.2812C77.9141 15.3594 76.9844 14.8984 75.6406 14.8984C73.5781 14.8984 71.9453 15.375 70.7422 16.3281V29.1016C71.7266 29.3516 72.8203 29.4766 74.0234 29.4766ZM102.758 28.1875L111.969 0.648438H118.555L128.117 28.3281C129.461 28.8125 130.398 29.375 130.93 30.0156L130.461 34H119.234L118.742 30.0156C119.133 29.5156 119.906 29.0391 121.062 28.5859L119.75 24.5547H110.164L108.945 28.4219C110.07 28.875 110.906 29.4062 111.453 30.0156L110.961 34H100.016L99.5469 30.0156C100.141 29.2812 101.211 28.6719 102.758 28.1875ZM115.297 8.17188L115.25 7.35156H114.57C114.57 9.28906 114.172 11.5625 113.375 14.1719L111.5 20.125H118.367L116.539 14.2656C115.805 12.0156 115.391 9.98438 115.297 8.17188ZM142.297 14.5234C139.359 14.5234 137.891 17.0469 137.891 22.0938C137.891 24.6562 138.297 26.4453 139.109 27.4609C139.922 28.4609 141.102 28.9609 142.648 28.9609C145.039 28.9609 147.18 28.7344 149.07 28.2812L150.523 31.9844C149.492 32.6562 148.109 33.2266 146.375 33.6953C144.656 34.1484 142.977 34.375 141.336 34.375C134.43 34.375 130.977 30.375 130.977 22.375C130.977 17.6875 132.18 14.3281 134.586 12.2969C136.727 10.5156 139.336 9.625 142.414 9.625C145.492 9.625 148.047 10.1953 150.078 11.3359C150.094 11.4922 150.102 11.6484 150.102 11.8047C150.117 11.9609 150.125 12.1094 150.125 12.25C150.125 14.0781 149.711 15.8047 148.883 17.4297H144.664C144.211 16.6172 143.938 15.6641 143.844 14.5703C143.641 14.5547 143.406 14.5469 143.141 14.5469C142.891 14.5312 142.609 14.5234 142.297 14.5234ZM164.164 34.375C160.32 34.375 157.43 33.3516 155.492 31.3047C153.555 29.2578 152.586 26.2812 152.586 22.375C152.586 20.0156 152.922 17.9844 153.594 16.2812C154.266 14.5625 155.18 13.2344 156.336 12.2969C158.57 10.5156 161.18 9.625 164.164 9.625C166.148 9.625 167.82 9.95312 169.18 10.6094C170.555 11.25 171.594 12.3359 172.297 13.8672C173.016 15.3828 173.375 17.4531 173.375 20.0781C173.375 22.3906 172.234 23.5469 169.953 23.5469H159.547C159.672 25.5625 160.188 26.9844 161.094 27.8125C162.016 28.6406 163.469 29.0547 165.453 29.0547C166.531 29.0547 167.562 28.9297 168.547 28.6797C169.547 28.4141 170.273 28.1562 170.727 27.9062L171.406 27.5312L172.836 31.3516C172.664 31.5547 172.391 31.8359 172.016 32.1953C171.766 32.4297 171.258 32.7188 170.492 33.0625C169.727 33.4062 168.789 33.7109 167.68 33.9766C166.586 34.2422 165.414 34.375 164.164 34.375ZM159.594 19.5625L167.188 19.2578C167.25 18.8672 167.281 18.3281 167.281 17.6406C167.281 17 167.023 16.3203 166.508 15.6016C165.992 14.8828 165.102 14.5234 163.836 14.5234C162.57 14.5234 161.602 14.9062 160.93 15.6719C160.258 16.4375 159.812 17.7344 159.594 19.5625Z" fill="url(#paint0_linear_2_16)"/>
<defs>
<linearGradient id="paint0_linear_2_16" x1="-4.5" y1="6.5" x2="177.5" y2="32.5" gradientUnits="userSpaceOnUse">
<stop stop-color="#016FB9"/>
<stop offset="1" stop-color="#05A5FB"/>
</linearGradient>
</defs>
</svg>
